<svg width="32" height="32" xmlns="http://www.w3.org/2000/svg">
 <title/>

 <g>
  <title>background</title>
  <rect x="-1" y="-1" width="34" height="34" id="canvas_background" fill="none"/>
 </g>
 <g>
  <title>Layer 1</title>
  <ellipse stroke="#000" ry="1.616466" rx="10.079139" id="svg_7" cy="24.177415" cx="16.031696" fill-opacity="null" stroke-opacity="null" stroke-width="1.5" fill="#727272"/>
  <rect stroke="#000" id="svg_2" height="19.017244" width="27.891957" y="5.382039" x="2.085718" stroke-width="1.5" fill="#727272"/>
  <path d="m15,12l2,0l5,0c1.06684,0 2.13369,0.28454 2.89697,1.00511c0.03353,-0.00338 0.06756,-0.00511 0.10199,-0.00511l1.00208,0c0.5563,0 0.99896,0.44772 0.99896,1c0,0.55614 -0.44725,1 -0.99896,1l-0.08459,0c0.05454,0.30487 0.08355,0.63699 0.08355,0.9981c0,3.0019 -2,4.0019 -4.00592,4.0019c-1.64441,0 -3.99408,-0.5 -4.33715,-2.68614c0,0 -0.15693,-1.31386 -1.65693,-1.31386c-1.5,0 -1.65693,1.31386 -1.65693,1.31386c-0.34307,2.18614 -2.69036,2.68614 -4.35232,2.68614c-1.99075,0 -3.99075,-1 -3.99075,-3.9981c0,-0.36259 0.02918,-0.69596 0.084,-1.0019l-0.08504,0c-0.5563,0 -0.99896,-0.44772 -0.99896,-1c0,-0.55614 0.44725,-1 0.99896,-1l1.00208,0c0.03441,0 0.06838,0.00171 0.10184,0.00506c0.76231,-0.72069 1.82686,-1.00506 2.88914,-1.00506l5.00798,0zm0,0" id="Rectangle 276 copy"/>
 </g>
</svg>